<?xml version="1.0" encoding="utf-8"?>
<!-- Generator: Adobe Illustrator 26.0.3, SVG Export Plug-In . SVG Version: 6.00 Build 0)  -->
<svg version="1.0" id="Layer_1" xmlns="http://www.w3.org/2000/svg" xmlns:xlink="http://www.w3.org/1999/xlink" x="0px" y="0px"
	 viewBox="0 0 1121.9 824.1" style="enable-background:new 0 0 1121.9 824.1;" xml:space="preserve">
<style type="text/css">
	.st0{fill:#FFF1C3;}
	.st1{fill:#E1001A;}
	.st2{fill:#006AB1;}
	.st3{fill:#FCC200;}
	.st4{fill:#1A171B;}
</style>
<path class="st0" d="M561,768c-34.1-14-66.4-31.9-96.4-53.3c-32-22.8-61.5-48.9-88.1-77.8c-54.7-59.1-97.5-128.2-126.2-203.5
	c34.5-119,35.7-214.8,3.8-318.7c46.5-18.9,94.7-33.3,144-43.1c107.6-21.2,218.2-21.2,325.8,0c49.3,9.8,97.5,24.2,144,43.1
	c-31.9,103.9-30.7,199.7,3.8,318.7c-28.6,75.3-71.5,144.4-126.2,203.5c-26.6,28.9-56.1,55-88.1,77.8C627.4,736.1,595.1,754,561,768"
	/>
<path class="st1" d="M658.1,721.4c96.4-67.6,176.4-171.6,219.9-287.9c-28.6-97.9-34.8-180.2-17.7-265.1l-3.3-11l-66.4-22.4l-6.9,5.5
	c-15.5,84.9-10.9,168.1,14.3,264.7c-63,145.7-172,234.1-249.4,268l-0.7,11.4l91,40L658.1,721.4z"/>
<path class="st2" d="M561,49.7c-101.7,0-198.4,18-285.6,50.3l-3.1,5.9c19.8,56.9,27.8,100,30.7,143.3c3.5,51.4-2.2,104.7-17.7,167.6
	l-0.4,1.6l0.7,1.5c8.2,17.5,17.4,34.5,27.6,50.9c10.2,16.4,21.3,32.1,33.3,47.2c12.1,15.2,25.1,29.7,38.9,43.5
	c14,14,28.8,27.4,44.2,39.9c15.4,12.6,32.1,24.8,49.4,36.3c17.1,11.4,35.5,22.4,54.4,32.8c3.3,1.8,6.6,3.6,9.9,5.3l5.3-0.2l0.1-2.4
	c4-1.8,8.1-3.7,12.3-5.7c-76.3-37.5-177.4-124.1-237-262.2c25.2-96.6,29.8-179.9,14.3-264.7c72.2-21.6,147.2-32.4,222.6-32.3
	c108,0,209.9,21.8,299.4,60.1c3.9-19.3,8.9-38.5,14.9-57.3C780.7,71.8,674,49.7,561,49.7"/>
<path class="st3" d="M658.1,721.4C482.4,656.8,355,557.4,289.9,417.9c32.5-131.4,20-213.7-14.6-318c-9.7,3.6-19.2,7.3-28.6,11.2
	C280.4,217.5,279,314,244,433.6c57.4,153.5,178.6,285.8,317,340.9C595.3,760.6,627.9,742.8,658.1,721.4"/>
<path class="st4" d="M506,331.5v-1.2c25.7-3.5,45.4-15,45.4-45.1c0-37.9-30.1-54.7-67.1-54.7H383v21.1c13.6,0,18.5,3.8,18.5,20.2
	v148.7c0,6.4,5.2,11.6,11.6,11.6c0,0,0,0,0,0h77.2c50,0,68-19.1,68-51.2C558.3,352,542.1,334.9,506,331.5 M454.4,253.6H466
	c20.5,0,28.9,8.4,28.9,33c0,27.8-7.5,33.3-27.8,33.3h-12.7L454.4,253.6z M471.5,410.7h-17v-68.6h19.1c20,0,29.2,9.8,29.2,34.4
	C502.8,404.3,492.6,410.7,471.5,410.7 M739.2,241.4l2.8,46.1h-25.2c-6.4-24.9-8.1-33.8-27.2-33.8h-8.4v178.5h-52.9V253.6H620
	c-19.1,0-20.9,9-27.2,33.8h-25.1l2.8-46.1c0.4-6.1,5.4-10.9,11.5-10.9h145.7C733.8,230.5,738.9,235.2,739.2,241.4"/>
</svg>
